<?xml version="1.0" encoding="UTF-8" standalone="no"?>
<!DOCTYPE svg PUBLIC "-//W3C//DTD SVG 1.1//EN" "http://www.w3.org/Graphics/SVG/1.1/DTD/svg11.dtd">
<!-- Created with Vectornator (http://vectornator.io/) -->
<svg height="100%" stroke-miterlimit="10" style="fill-rule:nonzero;clip-rule:evenodd;stroke-linecap:round;stroke-linejoin:round;" version="1.1" viewBox="0 0 546.844 533.333" width="100%" xml:space="preserve" xmlns="http://www.w3.org/2000/svg" xmlns:vectornator="http://vectornator.io" xmlns:xlink="http://www.w3.org/1999/xlink">
<defs/>
<g id="Untitled" vectornator:layerName="Untitled">
<g opacity="1" vectornator:layerName="g">
<path d="M273.406 0C122.422 0 0 122.394 0 273.406C0 394.206 78.3307 496.72 186.969 532.875C200.632 535.406 205.656 526.941 205.656 519.719C205.656 513.204 205.398 491.659 205.281 468.812C129.217 485.352 113.188 436.531 113.188 436.531C100.75 404.933 82.8125 396.531 82.8125 396.531C58.0049 379.562 84.6875 379.906 84.6875 379.906C112.143 381.834 126.594 408.094 126.594 408.094C150.98 449.889 190.553 437.799 206.156 430.812C208.615 413.146 215.711 401.078 223.531 394.25C162.8 387.341 98.9687 363.892 98.9688 259.125C98.9688 229.279 109.634 204.898 127.125 185.75C124.286 178.858 114.931 151.035 129.781 113.375C129.781 113.375 152.725 106.031 204.969 141.406C226.78 135.348 250.17 132.327 273.406 132.219C296.642 132.321 320.056 135.347 341.906 141.406C394.092 106.031 417.031 113.375 417.031 113.375C431.914 151.035 422.558 178.858 419.719 185.75C437.251 204.898 447.844 229.279 447.844 259.125C447.844 364.145 383.884 387.262 323 394.031C332.808 402.516 341.531 419.179 341.531 444.688C341.531 481.272 341.25 510.714 341.25 519.719C341.25 527 346.14 535.497 360 532.812C468.583 496.618 546.844 394.168 546.844 273.406C546.844 122.392 424.409 0 273.406 0Z" fill="#000000" fill-rule="nonzero" opacity="1" stroke="none" vectornator:layerName="Curve 7"/>
</g>
</g>
</svg>
