<svg id="parent" height="1024" width="1024" viewbox="0 0 1024 1024" xmlns="http://www.w3.org/2000/svg">
    <defs>
        <clipPath id="clipCircle">
            <circle cx="512" cy="512" r="402"/>
        </clipPath>
        <linearGradient id="camoGrad" gradientTransform="rotate(45)">
            <stop offset="0%" stop-color="#000000" />
            <stop offset="5%" stop-color="#2b2b2b" />
            <stop offset="70%" stop-color="#000000" />
        </linearGradient>
        <linearGradient id="camoGrad2" gradientTransform="rotate(45)">
            <stop offset="0%" stop-color="#000000" />
            <stop offset="50%" stop-color="#2b2b2b" />
            <stop offset="75%" stop-color="#1a1a1a" />
            <stop offset="100%" stop-color="#000000" />
        </linearGradient>
        <linearGradient id="camoGrad3" gradientTransform="rotate(25)">
            <stop offset="50%" stop-color="#000000" />
            <stop offset="100%" stop-color="#1a1a1a" />
        </linearGradient>
    </defs>    
    <g id="layer3" clip-path="url(#clipCircle)" height="1024" width="1024" viewbox="0 0 1024 1024">
        <g id="camo1" style="fill:url(#camoGrad); stroke:url(#camoGrad) stroke-width:1">
        <path d="M350,0 q30,-20 60,0 q90,30 60,0 q30,-30 60,0 q60,60 0,120 q-30,30 15,60 c45,-15 15,-45 60,-15 q30,15 -15,90 q-30,30 -60,20 q-40,-20 -90,0 q-50,30 -60,60 q-30,-15 -45,-30 q-30,-30 0,-60 q60,-30 10,-90 q-80,-70 40,-30 q30,-20 -20, -60 T550,256z" style="scale: 2; transform: rotate(2deg);"/>
        <path d="M20,380 q 40,-40 80,0 q40,40 80,40 q40,0 20, 60 q-20,40 10,80 q-20,40 -80,0 q-40,-20 -80,0 q-40,10 -35,-30 q20,-40 0,-60 q-40,-40 0,-85z" style="scale: 2; transform: rotate(341deg);"/>
        <path d="M900 70 q-250 150 250 200 q100 0 0 -120 t0 -150 c80 0 100 -100 0 -100 l-150 -25 q-25 -15 -90 50 c-30 20 -30 40 10 20 q-60 -40 -110 220Z" style="stroke-width:3;rotate:z 65deg; scale:0.6"/>
        
        <path d="M0,120 q0,-40 40,-40 q16,0 16,16 q0,16 -16,16 q-24,16 0,32 q32,8 40,0 q8,-16 -8,-16 q-16,-8 0,-16 q16,-24 32,0 q14,24 24,0 q10,-24 24,0 l24,24 q8,24 -16,24 q-32,16 0,40 q0,40 -40,40 q-24,0 -24,-24 q8,-16 24,-16 q16,-8 0,-16 q-12,-16 -24,-12 q-24,0 -16,32 q-20,24 -40,0 q-8,-40 -40,-16 q-16,8 0,16 q24,12 0,24 q-24,8 -32,-16 q0,-48 32,-56 q16,-12 0,-32z" style="scale: 2;"/>
        <path d="M265,110 q-24,-64 24,-32 q8,16 32,16 q16,-8 32,0 q24,0 40,-16 q16,0 8,16 q8,16 24,16 q32,16 0,40 q-24,24 0,64 q-40,8 -56,-24 q-16,-16 -32,0 q-24,32 -40,0 q0, -16 -16,-24 q-24,-8 0,-16 q24,-8 0,-24z" style="scale: 1.75; transform: rotate(2deg);"/>
        <path d="M100,400 q30,-20 60,0 q90,30 60,0 q30,-30 60,0 q60,60 0,120 q-30,30 15,60 c45,-15 15,-45 60,-15 q30,15 -15,90 q-30,30 -60,20 q-40,-20 -90,0 q-50,30 -60,60 q-30,-15 -45,-30 q-30,-30 0,-60 q60,-30 10,-90 q-80,-70 30,-30 q10,-20 -20, -60 T100,400z" style="scale: 1; transform: rotate(346deg);"/>
        </g>
        <g id="camo2" style="fill:url(#camoGrad2); stroke:url(#camoGrad2) stroke-width:1">
        <path d="M150,350 q 40,-40 80,0 q40,40 80,40 q40,0 20, 60 q-20,40 10,80 q-20,40 -80,0 q-40,-20 -80,0 q-40,10 -35,-30 q20,-40 0,-60 q-40,-40 0,-85z" style="scale: 2; transform: rotate(341deg);"/>
        <path d="M40,250 q 40,-40 80,0 q40,40 80,40 q40,0 20, 60 q-20,40 10,80 q-20,40 -80,0 q-40,-20 -80,0 q-40,10 -35,-30 q20,-40 0,-60 q-40,-40 0,-85z" style="scale: 2; transform: rotate(341deg);"/>
        <path d="M-920,-140 q30,-30 60,0 q30,30 60,0 q30,-30 60,0 q60,60 0,120 q-30,30 15,60 c30,15 90,0 15,-30 c-45,-15 15,-45 60,-15 l80,45 q30,15 -15,90 q-30,30 -60,20 q-40,-20 -90,10 q-50,30 -120,0 q-30,-15 -45,-30 q-30,-30 0,-60 q60,-60 0,-90 q-80,-40, -20,-120z" style="scale: 1; transform: rotate(190deg);"/>
        <path d="M90,-160 q30,-30 60,0 q30,30 60 0 c30,-5 45,0 15,45 q-30,30 0,60 t0,60 c-15,15 -30,12 -50,0 q20,-10 -80,-60 q-30,-15 -50,-40 z" style="scale: 3; rotate: 1 1 1 60deg;"/>
        
        <path d="M384,256 q15,15 80,0 q30,-15 55,-50 t60,-30 q-30,-45 -45,-30 q60,-30 -10,-90 t40,-30 q30,-60 20,40 t30,30 t70,180 T384,256z" style="scale: 0.5; transform: rotate(346deg);"/>
        <path d="M150,434 q0,-40 40,-40 q16,0 16,16 q0,16 -16,16 q-24,16 0,32 q32,8 40,0 q8,-16 -8,-16 q-16,-8 0,-16 q16,-24 32,0 q14,24 24,0 q10,-24 24,0 l24,24 q8,24 -16,24 q-32,16 0,40 q0,40 -40,40 q-24,0 -24,-24 q8,-16 24,-16 q16,-8 0,-16 q-12,-16 -24,-12 q-24,0 -16,32 q-20,24 -40,0 q-8,-40 -40,-16 q-16,8 0,16 q24,12 0,24 q-24,8 -32,-16 q0,-48 32,-56 q16,-12 0,-32z" style="scale: 2; transform: rotate(333deg);"/>
        <path d="M128,384 q-24,-64 24,-32 q8,16 32,16 q16,-8 32,0 q24,0 40,-16 q16,0 8,16 q8,16 24,16 q32,16 0,40 q-24,24 0,64 q-40,8 -56,-24 q-16,-16 -32,0 q-24,32 -40,0 q0, -16 -16,-24 q-24,-8 0,-16 q24,-8 0,-24z" style="scale: 2; transform: rotate(15deg);"/>
        <path d="M180,220 q-24,-64 24,-32 q8,16 32,16 q16,-8 32,0 q24,0 40,-16 q16,0 8,16 q8,16 24,16 q32,16 0,40 q-24,24 0,64 q-40,8 -56,-24 q-16,-16 -32,0 q-24,32 -40,0 q0, -16 -16,-24 q-24,-8 0,-16 q24,-8 0,-24z" style="scale: 2; transform: rotate(0deg);"/>
        </g>
        <g id="camo3" style="fill:url(#camoGrad3); stroke:url(#camoGrad3) stroke-width:1">
        <path d="M340,310 q30,-30 60,0 q30,30 60 0 c30,-5 45,0 15,45 q-30,30 0,60 t0,60 c-15,15 -30,12 -30,0 q20,-10 -60,-60 q-30,-15 -30, -40 z" style="scale: 2; rotate: 1 1 1 170deg;"/>
        <path d="M128,384 q30,-30 60,0 q30,30 60,0 q30,-30 60,0 q60,60 0,120 q-30,30 15,60 c30,15 90,0 15,-30 c-45,-15 15,-45 60,-15 l80,45 q30,15 -15,90 q-30,30 -60,20 q-40,-20 -90,10 q-50,30 -120,0 q-30,-15 -45,-30 q-30,-30 0,-60 q60,-60 0,-90 q-80,-40, -20,-120z" style=" scale: 2.5; transform: rotate(349deg);"/>
        <path d="M896,640 q0,-40 40,-40 q16,0 16,16 q0,16 -16,16 q-24,16 0,32 q32,8 40,0 q8,-16 -8,-16 q-16,-8 0,-16 q16,-24 32,0 q14,24 24,0 q10,-24 24,0 l24,24 q8,24 -16,24 q-32,16 0,40 q0,40 -40,40 q-24,0 -24,-24 q8,-16 24,-16 q16,-8 0,-16 q-12,-16 -24,-12 q-24,0 -16,32 q-20,24 -40,0 q-8,-40 -40,-16 q-16,8 0,16 q24,12 0,24 q-24,8 -32,-16 q0,-48 32,-56 q16,-12 0,-32z" style=" scale: 1; transform: rotate(357deg);"/>
        <path d="M50,30 q-24,-64 24,-32 q8,16 32,16 q16,-8 32,0 q24,0 40,-16 q16,0 8,16 q8,16 24,16 q32,16 0,40 q-24,24 0,64 q-40,8 -56,-24 q-16,-16 -32,0 q-24,32 -40,0 q0, -16 -16,-24 q-24,-8 0,-16 q24,-8 0,-24z" style="scale: 2; transform: rotate(14deg);"/>
        <path d="M100,384 q30,-30 60,0 q30,30 60,0 q30,-30 60,0 q60,60 0,120 q-30,30 15,60 c30,15 90,0 15,-30 c-45,-15 15,-45 60,-15 l80,45 q30,15 -15,90 q-30,30 -60,20 q-40,-20 -90,10 q-50,30 -120,0 q-30,-15 -45,-30 q-30,-30 0,-60 q60,-60 0,-90 q-80,-40, -20,-120z" style="scale: 1.5; transform: rotate(9deg);"/>
        <path d="M250,265 q30,-50 60,0 q90,30 60,0 q30,-30 60,0 q60,60 0,120 q-30,30 15,60 c45,-15 15,-45 60,-15 q30,15 -15,90 q-30,30 -60,20 q-40,-20 -90,0 q-50,30 -60,60 q-30,-15 -45,-30 q-30,-30 0,-60 q60,-30 10,-90 q-80,-70, -20,70  q-50,150 -60 0 l0,-150 c20,40 60,0 -14,-80 T250,265z" style="scale: 1; transform: rotate(32deg);"/>
        <path d="M375,230 q8,16 32,16 q16,-8 32,0 q24,0 40,-16 q16,0 8,16 q-24,24 0,64 q-40,8 -56,-24 q-16,-16 -32,0 q-24,32 -40,0 q0, -16 -16,-24 q-24,-8 0,-16 q24,-8 0,-24z" style="scale:2"/>
        <path d="M128,384 q30,-30 60,0 q30,30 60,0 q30,-30 60,0 q60,60 0,120 q-30,30 15,60 c30,15 90,0 15,-30 c-45,-15 15,-45 60,-15 l80,45 q30,15 -15,90 q-30,30 -60,20 q-40,-20 -90,10 q-50,30 -120,0 q-30,-15 -45,-30 q-30,-30 0,-60 q60,-60 0,-90 q-80,-40, -20,-120z" style="scale: 1; transform: rotate(302deg);"/>
        <path d="M550,256 q30,-20 60,0 q90,30 60,0 q30,-30 60,0 q60,60 0,120 q-30,30 15,60 c45,-15 15,-45 60,-15 q30,15 -15,90 q-30,30 -60,20 q-40,-20 -90,0 q-50,30 -60,60 q-30,-15 -45,-30 q-30,-30 0,-60 q60,-30 10,-90 q-80,-70 40,-30 q30,-20 -20, -60 T550,256z" style="scale: 1.5; transform: rotate(2deg);"/>
        <path d="M384,256 q-24,-64 24,-32 q8,16 32,16 q16,-8 32,0 q24,0 40,-16 q16,0 8,16 q8,16 24,16 q32,16 0,40 q-24,24 0,64 q-40,8 -56,-24 q-16,-16 -32,0 q-24,32 -40,0 q0, -16 -16,-24 q-24,-8 0,-16 q24,-8 0,-24z" style="scale: 2; transform: rotate(341deg);"/>
        <path d="M128,384 q-24,-64 24,-32 q8,16 32,16 q16,-8 32,0 q24,0 40,-16 q16,0 8,16 q8,16 24,16 q32,16 0,40 q-24,24 0,64 q-40,8 -56,-24 q-16,-16 -32,0 q-24,32 -40,0 q0, -16 -16,-24 q-24,-8 0,-16 q24,-8 0,-24z" style="scale: 2; transform: rotate(323deg);"/>
        <path d="M88,384 q30,-30 60,0 q30,30 60,0 q30,-30 60,0 q60,60 0,120 q-30,30 15,60 c30,15 90,0 15,-30 c-45,-15 15,-45 60,-15 l80,45 q30,15 -15,90 q-30,30 -60,20 q-40,-20 -90,10 q-50,30 -120,0 q-30,-15 -45,-30 q-30,-30 0,-60 q60,-60 0,-90 q-80,-40, -20,-120z" style="scale: 0.5; transform: rotate(3deg);"/>
        <path d="M256,776 q30,-20 60,0 q90,30 60,0 q30,-30 60,0 q60,60 0,120 q-30,30 15,60 c45,-15 15,-45 60,-15 q30,15 -15,90 q-30,30 -60,20 q-40,-20 -90,0 q-50,30 -60,60 q-30,-15 -45,-30 q-30,-30 0,-60 q60,-30 10,-90 q-80,-70 40,-30 q30,-20 -20, -60 T256,776z" style="scale: 0.5; transform: rotate(323deg);"/>  
        <path d="M384,264 q0,-40 40,-40 q16,0 16,16 q0,16 -16,16 q-24,16 0,32 q32,8 40,0 q8,-16 -8,-16 q-16,-8 0,-16 q16,-24 32,0 q14,24 24,0 q10,-24 24,0 l24,24 q8,24 -16,24 q-32,16 0,40 q0,40 -40,40 q-24,0 -24,-24 q8,-16 24,-16 q16,-8 0,-16 q-12,-16 -24,-12 q-24,0 -16,32 q-20,24 -40,0 q-8,-40 -40,-16 q-16,8 0,16 q24,12 0,24 q-24,8 -32,-16 q0,-48 32,-56 q16,-12 0,-32z" style="scale: 2; transform: rotate(19deg);"/>
        <path d="M776,512 q-24,-64 24,-32 q8,16 32,16 q16,-8 32,0 q24,0 40,-16 q16,0 8,16 q8,16 24,16 q32,16 0,40 q-24,24 0,64 q-40,8 -56,-24 q-16,-16 -32,0 q-24,32 -40,0 q0, -16 -16,-24 q-24,-8 0,-16 q24,-8 0,-24z" style="scale: 1; transform: rotate(30deg);"/>
        <path d="M900 -580 q-250 150 250 200 q100 0 0 -120 t0 -150 c80 0 100 -100 0 -100 l-150 -25 q-25 -15 -90 50 c-30 20 -30 40 10 20 q-60 -40 -110 220Z" style="stroke-width:3;rotate:z 65deg; scale:0.6"/>
        </g>
    </g>
</svg>